<svg xmlns="http://www.w3.org/2000/svg" xmlns:xlink="http://www.w3.org/1999/xlink" width="394" height="1010" viewBox="0 0 394 1010"><svg width="94" height="94" viewBox="-2 -2 33 33"><g fill="none" fill-rule="evenodd"><path fill="#016FD0" d="M0 0h29v29H0V12.228z"/><path fill="#FFF" d="M5.623 20.203v-4.56h4.817l.516.678.531-.677H29v4.237s-.451.306-.983.306h-9.683l-.58-.725v.725h-1.917v-1.224s-.258.177-.821.177h-.645v1.047h-2.9l-.515-.693-.532.693-4.801.016zM0 12.228l1.08-2.53h1.884l.613 1.419V9.699h2.336l.37 1.031.355-1.031h10.488v.515s.548-.515 1.45-.515l3.4.016.612 1.402V9.699h1.95l.53.805V9.7h1.999v4.56h-1.982l-.516-.806v.805h-2.867l-.29-.725h-.774l-.29.725h-1.95c-.772 0-1.272-.5-1.272-.5v.5h-2.932l-.58-.725v.725H2.69l-.29-.725h-.774l-.29.725H0v-2.03z"/><path fill="#016FD0" d="M1.466 10.247L0 13.662h.95l.274-.676h1.58l.273.676h.983l-1.466-3.415H1.466zm.548.79l.483 1.191h-.966l.483-1.192zm2.143 2.625v-3.415l1.353.016.79 2.19.773-2.206H8.41v3.415h-.854V11.15l-.902 2.513h-.741l-.919-2.513v2.513zm4.833 0v-3.415h2.787v.773H9.86v.58h1.869v.709H9.86v.612h1.917v.741zm3.27-3.415v3.415h.854v-1.208h.355l1.015 1.208h1.047l-1.128-1.256a1.03 1.03 0 00.935-1.048c0-.725-.564-1.111-1.192-1.111H12.26zm.854.773h.967c.242 0 .403.177.403.354 0 .226-.226.355-.387.355h-.983v-.709zm3.464 2.642h-.87v-3.415h.87zm2.062 0h-.193c-.902 0-1.466-.709-1.466-1.691 0-1 .548-1.724 1.692-1.724h.934v.805h-.983c-.467 0-.789.37-.789.919 0 .66.37.934.918.934h.226l-.338.757zm1.853-3.415l-1.466 3.415h.95l.275-.676h1.579l.273.676h.983l-1.466-3.415h-1.128zm.548.79l.483 1.191h-.966l.483-1.192zm2.127 2.625v-3.415h1.08l1.385 2.142v-2.142h.854v3.415h-1.048l-1.417-2.207v2.207zM6.219 19.623v-3.415H8.99v.773H7.073v.58h1.869v.725h-1.87v.596H8.99v.741zm13.614 0v-3.415h2.787v.773h-1.917v.58h1.869v.725h-1.87v.596h1.918v.741zm-10.73 0l1.353-1.675-1.385-1.74h1.079l.822 1.08.821-1.08h1.031l-1.369 1.708 1.37 1.707h-1.08l-.806-1.047-.773 1.047zm3.818-3.399v3.415h.87V18.56h.902c.758 0 1.338-.403 1.338-1.192 0-.645-.452-1.144-1.225-1.144h-1.885zm.87.757h.95c.242 0 .42.145.42.387 0 .225-.178.386-.42.386h-.934v-.773h-.016zm2.61-.773v3.415h.854v-1.208h.354l1.015 1.208h1.048l-1.128-1.256a1.03 1.03 0 00.934-1.048c0-.725-.564-1.111-1.192-1.111h-1.885zm.854.773h.967c.241 0 .402.177.402.355 0 .225-.225.354-.386.354h-.983v-.709zm5.768 2.642v-.74h1.708c.257 0 .354-.13.354-.29 0-.146-.113-.29-.354-.29h-.774c-.676 0-1.047-.404-1.047-1.016 0-.548.338-1.08 1.337-1.08h1.66l-.355.774h-1.434c-.274 0-.354.145-.354.274 0 .145.097.29.306.29h.806c.74 0 1.063.419 1.063.983 0 .596-.355 1.08-1.112 1.08l-1.804.015zm3.125 0v-.74h1.628c.257 0 .354-.13.354-.29 0-.146-.113-.29-.354-.29h-.693c-.677 0-1.047-.404-1.047-1.016 0-.548.338-1.08 1.337-1.08H29l-.354.774h-1.402c-.274 0-.355.145-.355.274 0 .145.097.29.307.29h.74c.742 0 1.064.419 1.064.983 0 .596-.354 1.08-1.112 1.08l-1.74.015z"/></g></svg><svg width="109" height="104" viewBox="-2 -2 45 42" y="94"><g fill="none" fill-rule="evenodd"><path fill="#F79F1A" d="M40.521 12.333c0 6.743-5.541 12.21-12.376 12.21-6.836 0-12.377-5.467-12.377-12.21 0-6.743 5.541-12.21 12.377-12.21 6.835 0 12.376 5.467 12.376 12.21z"/><path fill="#EA001B" d="M25.253 12.333c0 6.743-5.541 12.21-12.377 12.21C6.041 24.543.5 19.076.5 12.333.5 5.59 6.041.123 12.876.123c6.836 0 12.377 5.467 12.377 12.21z"/><path fill="#FF5F01" d="M20.51 2.722c-2.887 2.235-4.74 5.708-4.74 9.61 0 3.902 1.853 7.378 4.74 9.613 2.888-2.235 4.742-5.711 4.742-9.613 0-3.902-1.854-7.375-4.741-9.61z"/><path fill="#FFF" d="M2.133 36.904v-8.68h2.863c2.782 0 4.53 1.965 4.53 4.347 0 2.407-1.748 4.333-4.53 4.333H2.133zm.766-.677h2.097c2.366 0 3.723-1.626 3.723-3.656 0-2.03-1.344-3.67-3.723-3.67H2.899v7.326zm11.13-6.558l2.311-1.874h-.833l-2.07 1.874h.591zm-2.998 4.086c0-1.822 1.33-3.292 3.132-3.292 1.975 0 3.064 1.522 3.064 3.33v.183h-5.43c.067 1.366 1.008 2.498 2.54 2.498.82 0 1.573-.299 2.124-.871l.363.442c-.645.65-1.465 1.015-2.54 1.015-1.896 0-3.253-1.366-3.253-3.305zm3.118-2.707c-1.532 0-2.298 1.301-2.352 2.394h4.718c-.014-1.067-.74-2.394-2.366-2.394zm4.88 5.856v-8.68h.698v3.41c.524-.716 1.344-1.171 2.258-1.171 1.734 0 2.903 1.314 2.903 3.305 0 2.017-1.182 3.292-2.903 3.292a2.79 2.79 0 01-2.258-1.158v1.002h-.699zm.698-1.575c.376.599 1.237 1.12 2.137 1.12 1.452 0 2.272-1.159 2.272-2.681 0-1.523-.82-2.694-2.272-2.694-.9 0-1.76.547-2.137 1.145v3.11zm7.325-5.7a.53.53 0 00.538-.52c0-.286-.242-.507-.538-.507-.282 0-.537.221-.537.507 0 .287.255.52.537.52zm-.349 7.275h.699v-6.285h-.699v6.285zm4.288.156c.537 0 .846-.156 1.102-.39l-.27-.52a1.03 1.03 0 01-.725.298c-.457 0-.672-.35-.672-.858v-4.373h1.317v-.598h-1.317V28.9h-.712v1.718h-1.076v.598h1.076v4.477c0 .859.416 1.366 1.277 1.366zm5.026 0c-1.895 0-3.118-1.47-3.118-3.305 0-1.835 1.223-3.292 3.118-3.292 1.923 0 3.132 1.457 3.132 3.292 0 1.835-1.21 3.305-3.132 3.305zm0-.612c1.533 0 2.38-1.288 2.38-2.693 0-1.393-.847-2.68-2.38-2.68-1.505 0-2.365 1.287-2.365 2.68 0 1.405.86 2.693 2.365 2.693z"/></g></svg><svg width="109" height="104" viewBox="-2 -2 45 42" y="198"><g fill="none" fill-rule="evenodd"><path fill="#F79F1A" d="M40.021 12.833c0 6.743-5.541 12.21-12.376 12.21-6.836 0-12.377-5.467-12.377-12.21 0-6.743 5.541-12.21 12.377-12.21 6.835 0 12.376 5.467 12.376 12.21z"/><path fill="#EA001B" d="M24.753 12.833c0 6.743-5.541 12.21-12.377 12.21C5.541 25.043 0 19.576 0 12.833 0 6.09 5.541.623 12.376.623c6.836 0 12.377 5.467 12.377 12.21z"/><path fill="#FF5F01" d="M20.01 3.222c-2.887 2.235-4.74 5.708-4.74 9.61 0 3.902 1.853 7.378 4.74 9.613 2.888-2.235 4.742-5.711 4.742-9.613 0-3.902-1.854-7.375-4.741-9.61z"/><path fill="#333" d="M1.633 37.404v-8.68h2.863c2.782 0 4.53 1.965 4.53 4.347 0 2.407-1.748 4.333-4.53 4.333H1.633zm.766-.677h2.097c2.366 0 3.723-1.626 3.723-3.656 0-2.03-1.344-3.67-3.723-3.67H2.399v7.326zm11.13-6.558l2.311-1.874h-.833l-2.07 1.874h.591zm-2.998 4.086c0-1.822 1.33-3.292 3.132-3.292 1.975 0 3.064 1.522 3.064 3.33v.183h-5.43c.067 1.366 1.008 2.498 2.54 2.498.82 0 1.573-.299 2.124-.871l.363.442c-.645.65-1.465 1.015-2.54 1.015-1.896 0-3.253-1.366-3.253-3.305zm3.118-2.707c-1.532 0-2.298 1.301-2.352 2.394h4.718c-.014-1.067-.74-2.394-2.366-2.394zm4.88 5.856v-8.68h.698v3.41c.524-.716 1.344-1.171 2.258-1.171 1.734 0 2.903 1.314 2.903 3.305 0 2.017-1.182 3.292-2.903 3.292a2.79 2.79 0 01-2.258-1.158v1.002h-.699zm.698-1.575c.376.599 1.237 1.12 2.137 1.12 1.452 0 2.272-1.159 2.272-2.681 0-1.523-.82-2.694-2.272-2.694-.9 0-1.76.547-2.137 1.145v3.11zm7.325-5.7a.53.53 0 00.538-.52c0-.286-.242-.507-.538-.507-.282 0-.537.221-.537.507 0 .287.255.52.537.52zm-.349 7.275h.699v-6.285h-.699v6.285zm4.288.156c.537 0 .846-.156 1.102-.39l-.27-.52a1.03 1.03 0 01-.725.298c-.457 0-.672-.35-.672-.858v-4.373h1.317v-.598h-1.317V29.4h-.712v1.718h-1.076v.598h1.076v4.477c0 .859.416 1.366 1.277 1.366zm5.026 0c-1.895 0-3.118-1.47-3.118-3.305 0-1.835 1.223-3.292 3.118-3.292 1.923 0 3.132 1.457 3.132 3.292 0 1.835-1.21 3.305-3.132 3.305zm0-.612c1.533 0 2.38-1.288 2.38-2.693 0-1.393-.847-2.68-2.38-2.68-1.505 0-2.365 1.287-2.365 2.68 0 1.405.86 2.693 2.365 2.693z"/></g></svg><svg width="119" height="84" viewBox="-2 -2 49 33" y="302"><path d="M6.558 28.6v-8.633h2.863c2.782 0 4.53 1.954 4.53 4.323 0 2.394-1.748 4.31-4.53 4.31H6.558zm.766-.673h2.097c2.366 0 3.723-1.618 3.723-3.637 0-2.02-1.344-3.65-3.723-3.65H7.324v7.287zm11.13-6.524l2.311-1.863h-.833l-2.07 1.863h.591zm-2.998 4.065c0-1.812 1.33-3.275 3.132-3.275 1.976 0 3.064 1.514 3.064 3.314v.18h-5.43c.067 1.36 1.008 2.486 2.54 2.486.82 0 1.573-.298 2.124-.867l.363.44c-.645.647-1.465 1.01-2.54 1.01-1.895 0-3.253-1.36-3.253-3.288zm3.118-2.693c-1.532 0-2.298 1.295-2.352 2.382h4.718c-.014-1.061-.74-2.382-2.366-2.382zm4.88 5.825v-8.633h.698v3.39c.524-.71 1.344-1.164 2.258-1.164 1.734 0 2.904 1.307 2.904 3.288 0 2.006-1.183 3.274-2.904 3.274a2.795 2.795 0 01-2.258-1.152v.997h-.699zm.698-1.566c.377.595 1.237 1.113 2.137 1.113 1.452 0 2.272-1.152 2.272-2.666 0-1.515-.82-2.68-2.272-2.68-.9 0-1.76.544-2.137 1.14v3.093zm7.326-5.67a.53.53 0 00.537-.517c0-.285-.242-.505-.537-.505-.283 0-.538.22-.538.505 0 .285.255.518.538.518zm-.35 7.236h.699v-6.252h-.699V28.6zm4.288.155c.537 0 .846-.155 1.102-.388l-.269-.518a1.033 1.033 0 01-.726.298c-.457 0-.672-.35-.672-.854v-4.35h1.317v-.595h-1.317V20.64h-.712v1.708h-1.075v.596h1.075v4.452c0 .855.416 1.36 1.277 1.36zm5.027 0c-1.896 0-3.119-1.462-3.119-3.287s1.223-3.275 3.119-3.275c1.922 0 3.131 1.45 3.131 3.275s-1.21 3.287-3.131 3.287zm0-.608c1.532 0 2.379-1.281 2.379-2.68 0-1.384-.847-2.666-2.38-2.666-1.505 0-2.365 1.282-2.365 2.667 0 1.398.86 2.679 2.366 2.679zM22.288.75l-2.94 13.537h-3.556L18.732.75h3.556zm14.957 8.74l1.873-5.082 1.077 5.082h-2.95zm3.97 4.797H44.5L41.633.75h-3.036c-.683 0-1.26.39-1.513.992l-5.335 12.545h3.732l.742-2.021h4.562l.43 2.02zM31.931 9.87c.017-3.578-5.015-3.774-4.98-5.367.011-.489.48-1.005 1.507-1.138.51-.064 1.913-.114 3.507.606L32.59 1.1c-.854-.304-1.957-.6-3.326-.6-3.512 0-5.988 1.84-6.007 4.478-.023 1.947 1.765 3.035 3.114 3.685 1.383.662 1.847 1.087 1.844 1.682-.01.907-1.107 1.309-2.128 1.322-1.787.03-2.827-.474-3.652-.852l-.646 2.966c.83.376 2.364.699 3.955.719 3.734 0 6.178-1.82 6.188-4.63zM17.208.75l-5.76 13.537h-3.76L4.854 3.483c-.174-.667-.324-.908-.846-1.19C3.155 1.835 1.743 1.407.5 1.14L.586.75h6.048c.772 0 1.465.504 1.64 1.38l1.498 7.835L13.471.75h3.737z" fill="#FFF" fill-rule="evenodd"/></svg><svg width="114" height="74" viewBox="-2 -2 49 33" y="386"><g fill="none" fill-rule="evenodd"><path fill="#333" d="M6.558 28.1v-8.633h2.863c2.782 0 4.53 1.954 4.53 4.323 0 2.394-1.748 4.31-4.53 4.31H6.558zm.766-.673h2.097c2.366 0 3.723-1.618 3.723-3.637 0-2.02-1.344-3.65-3.723-3.65H7.324v7.287zm11.13-6.524l2.311-1.863h-.833l-2.07 1.863h.591zm-2.998 4.065c0-1.812 1.33-3.275 3.132-3.275 1.976 0 3.064 1.514 3.064 3.314v.18h-5.43c.067 1.36 1.008 2.486 2.54 2.486.82 0 1.573-.298 2.124-.867l.363.44c-.645.647-1.465 1.01-2.54 1.01-1.895 0-3.253-1.36-3.253-3.288zm3.118-2.693c-1.532 0-2.298 1.295-2.352 2.382h4.718c-.014-1.061-.74-2.382-2.366-2.382zm4.88 5.825v-8.633h.698v3.39c.524-.71 1.344-1.164 2.258-1.164 1.734 0 2.904 1.307 2.904 3.288 0 2.006-1.183 3.274-2.904 3.274a2.795 2.795 0 01-2.258-1.152v.997h-.699zm.698-1.566c.377.595 1.237 1.113 2.137 1.113 1.452 0 2.272-1.152 2.272-2.666 0-1.515-.82-2.68-2.272-2.68-.9 0-1.76.544-2.137 1.14v3.093zm7.326-5.67a.53.53 0 00.537-.517c0-.285-.242-.505-.537-.505-.283 0-.538.22-.538.505 0 .285.255.518.538.518zm-.35 7.236h.699v-6.252h-.699V28.1zm4.288.155c.537 0 .846-.155 1.102-.388l-.269-.518a1.033 1.033 0 01-.726.298c-.457 0-.672-.35-.672-.854v-4.35h1.317v-.595h-1.317V20.14h-.712v1.708h-1.075v.596h1.075v4.452c0 .855.416 1.36 1.277 1.36zm5.027 0c-1.896 0-3.119-1.462-3.119-3.287s1.223-3.275 3.119-3.275c1.922 0 3.131 1.45 3.131 3.275s-1.21 3.287-3.131 3.287zm0-.608c1.532 0 2.379-1.281 2.379-2.68 0-1.384-.847-2.666-2.38-2.666-1.505 0-2.365 1.282-2.365 2.667 0 1.398.86 2.679 2.366 2.679z"/><path fill="#10357E" d="M22.288.25l-2.94 13.537h-3.556L18.732.25h3.556zm14.957 8.74l1.873-5.082 1.077 5.082h-2.95zm3.97 4.797H44.5L41.633.25h-3.036c-.683 0-1.26.39-1.513.992l-5.335 12.545h3.732l.742-2.021h4.562l.43 2.02zM31.931 9.37c.017-3.578-5.015-3.774-4.98-5.367.011-.489.48-1.005 1.507-1.138.51-.064 1.913-.114 3.507.606L32.59.6c-.854-.304-1.957-.6-3.326-.6-3.512 0-5.988 1.84-6.007 4.478-.023 1.947 1.765 3.035 3.114 3.685 1.383.662 1.847 1.087 1.844 1.682-.01.907-1.107 1.309-2.128 1.322-1.787.03-2.827-.474-3.652-.852l-.646 2.966c.83.376 2.364.699 3.955.719 3.734 0 6.178-1.82 6.188-4.63zM17.208.25l-5.76 13.537h-3.76L4.854 2.983c-.174-.667-.324-.908-.846-1.19C3.155 1.335 1.743.907.5.64L.586.25h6.048c.772 0 1.465.504 1.64 1.38l1.498 7.835L13.471.25h3.737z"/></g></svg><svg width="94" height="104" viewBox="-2 -2 52 40" y="460"><g fill="none" fill-rule="evenodd"><path fill="#FFF" d="M21.602 26.601c.065-.013.278-.035.477-.1.996-.321 1.647-1.321 1.627-2.477-.02-1.11-.722-2.103-1.693-2.396-1.115-.337-2.28.327-2.69 1.532-.58 1.715.493 3.448 2.279 3.441zm2.112-6.969c0-1.511.02-2.928-.011-4.344-.01-.468.147-.594.586-.574.637.029 1.276.016 1.914.004.307-.005.435.095.434.424-.01 3.098.073 6.199-.03 9.294-.097 2.963-2.465 5.032-5.423 4.918-2.761-.107-4.94-2.308-4.95-5.11-.009-2.49 1.323-4.526 3.455-5.198 1.378-.434 2.71-.285 4.025.586zM3.47 1c-.032.242-.078.285-.078.468-.004 9.516-.01 19.033 0 28.549.003 2.962 2.105 5.074 5.051 5.115H8.5c.222 0 .18.003.082 0H8.5c-.66 0-1.358.041-2.091.041-3.186 0-5.308-2.105-5.31-5.274V1.735c0-.725.009-.734.742-.735h1.63m26.671 22.573l3.927-1.655c-.782-.593-1.553-.723-2.38-.403-.884.342-1.347 1.028-1.547 2.058zm.722 2.403c.945 1.023 2.576.954 3.41-.077a.907.907 0 01.588-.3c.686-.037 1.375-.016 2.063-.014.568.002.627.086.413.637-.681 1.76-2.005 2.736-3.838 3.035-2.808.459-5.327-1.219-6.008-3.97-.553-2.236.44-4.615 2.432-5.828 1.883-1.146 4.359-.93 6.028.54.854.752 1.31 1.73 1.564 2.82.08.342-.145.413-.38.511-1.93.806-3.858 1.616-5.786 2.426-.149.063-.295.133-.486.22z"/><path fill="#FFF" d="M6.414 20.037c0-1.63.011-3.26-.008-4.89-.005-.412.138-.547.54-.532.62.024 1.243.023 1.864 0 .407-.014.54.137.538.542-.013 3.065-.007 6.13-.007 9.194 0 1.435.755 2.112 2.208 1.955.307-.033.426.057.423.356a83.75 83.75 0 00.001 2.005c.005.3-.147.389-.417.42-3.009.338-5.138-1.542-5.142-4.55-.002-1.5 0-3 0-4.5m32.07 2.184c.458-2.924 3.082-3.706 5.086-3.447.275.036.351.17.348.423-.01.652-.01 1.305 0 1.957.005.302-.118.401-.415.38-.292-.02-.594-.033-.879.018-.826.15-1.332.795-1.336 1.687-.008 1.745-.016 3.491.007 5.237.006.455-.1.649-.594.615a15.825 15.825 0 00-1.816-.003c-.4.02-.548-.1-.536-.517.028-.945.01-1.892.01-2.838.031 0-.054-2.368.125-3.512m-25.876 1.864c0-1.5.013-3-.007-4.499-.006-.428.139-.581.567-.563.637.027 1.276.016 1.914.004.335-.007.456.123.455.461-.01 3.048-.01 6.097 0 9.145 0 .34-.116.458-.458.446-.711.023-1.022-.005-1.864.003-.466.027-.626-.115-.617-.596.029-1.467.01-2.934.01-4.401m2.966-9.349c0 .865.01 1.721-.015 2.576-.002.085-.21.23-.327.234-.733.022-1.467.01-2.2.013-.237 0-.417-.067-.298-.339.52-1.184 1.368-2.037 2.59-2.5.054-.021.125.006.25.016"/><path stroke="#FFF" stroke-width=".5" d="M47.153 35.175H5.914C3.2 35.175 1 32.982 1 30.278V1.294C1 1.132 1.132 1 1.295 1h41.239c2.714 0 4.914 2.193 4.914 4.897v28.984a.294.294 0 01-.295.294z"/></g></svg><svg height="84" width="114" viewBox="-2 -2 99 78" y="564"><g fill-rule="evenodd" fill="none"><path fill="#F79F1A" d="M94.92 29.255c0 16.066-13.119 29.09-29.302 29.09s-29.302-13.024-29.302-29.09C36.316 13.19 49.435.166 65.618.166S94.92 13.19 94.92 29.255z"/><path fill="#EA001B" d="M58.772 29.255c0 16.066-13.119 29.09-29.302 29.09S.168 45.321.168 29.255C.168 13.19 13.287.166 29.47.166S58.772 13.19 58.772 29.255z"/><path fill="#FF5F01" d="M47.544 6.356c-6.837 5.326-11.225 13.601-11.225 22.897s4.388 17.577 11.225 22.902c6.837-5.325 11.225-13.606 11.225-22.902s-4.388-17.57-11.225-22.897z"/><path d="M6.686 72.735H5.023v-7.689h1.63v.937s1.432-1.145 2.282-1.13c1.654.027 2.641 1.42 2.641 1.42s.801-1.42 2.608-1.42c2.673 0 3.065 2.422 3.065 2.422v5.428h-1.597v-4.782s.005-1.453-1.728-1.453c-1.793 0-1.957 1.454-1.957 1.454v4.781h-1.662v-4.814s-.16-1.518-1.663-1.518c-1.952 0-1.989 1.55-1.989 1.55l.033 4.814zm50.566-7.884c-.851-.014-2.282 1.131-2.282 1.131v-.935h-1.632v7.687h1.664l-.032-4.813s.036-1.547 1.988-1.547c.363 0 .645.087.867.22v-.006l.542-1.497a3.01 3.01 0 00-1.115-.24zm23.422 0c-.85-.014-2.282 1.131-2.282 1.131v-.935H76.76v7.687h1.664l-.032-4.813s.037-1.547 1.989-1.547c.363 0 .644.087.867.22v-.006l.542-1.497a3.011 3.011 0 00-1.116-.24zm-58.048-.031c-2.489 0-3.806 2.216-3.812 4.067-.007 1.898 1.499 4.087 3.882 4.087 1.39 0 2.532-1.017 2.532-1.017l-.003.783h1.637v-7.696h-1.643v.97s-1.072-1.194-2.593-1.194zm.318 1.566c1.337 0 2.423 1.153 2.423 2.571s-1.086 2.564-2.423 2.564-2.416-1.146-2.416-2.564 1.079-2.57 2.416-2.57zm47.412-1.566c-2.488 0-3.805 2.216-3.812 4.067-.007 1.898 1.499 4.087 3.882 4.087 1.39 0 2.532-1.017 2.532-1.017l-.003.783h1.637v-7.696H72.95v.97s-1.073-1.194-2.594-1.194zm.319 1.566c1.337 0 2.422 1.153 2.422 2.571s-1.085 2.564-2.422 2.564-2.416-1.146-2.416-2.564 1.079-2.57 2.416-2.57zm15.396-1.566c-2.489 0-3.806 2.216-3.812 4.067-.007 1.898 1.499 4.087 3.882 4.087 1.39 0 2.532-1.017 2.532-1.017l-.003.783h1.637V62.006h-1.643v4.008s-1.072-1.194-2.593-1.194zm.318 1.566c1.337 0 2.423 1.153 2.423 2.571s-1.086 2.564-2.423 2.564-2.416-1.146-2.416-2.564 1.079-2.57 2.416-2.57zm-54.534 6.607c-1.695 0-3.26-1.033-3.26-1.033l.717-1.099s1.481.679 2.543.679c.69 0 1.845-.221 1.859-.905.014-.723-1.94-.937-1.94-.937s-2.918-.04-2.918-2.423c0-1.499 1.457-2.455 3.325-2.455 1.08 0 3.097.937 3.097.937l-.815 1.26s-1.558-.617-2.38-.646c-.694-.025-1.532.304-1.532.904 0 1.63 4.858-.127 4.858 3.166 0 2.161-1.979 2.552-3.554 2.552zm6.254-10.176v2.237h-1.447v1.617h1.447v3.865s-.128 2.615 2.709 2.615c.785 0 2.321-.575 2.321-.575l-.657-1.68s-.611.516-1.3.5c-1.312-.034-1.275-.866-1.275-.866v-3.86h2.703v-1.615h-2.703v-2.238h-1.798zm9.849 2.098c-2.669 0-4.002 2.177-3.991 4.067.012 1.944 1.214 4.131 4.15 4.131 1.257 0 3.022-1.093 3.022-1.093l-.759-1.307s-1.204.846-2.263.846c-2.119 0-2.256-2.052-2.256-2.052h5.673s.423-4.592-3.576-4.592zm-.243 1.51c.063-.004.131 0 .198 0 1.997 0 1.983 1.869 1.983 1.869h-4.035s-.096-1.76 1.854-1.87zm17.118 4.268l.761 1.508s-1.206.776-2.559.776c-2.802 0-4.357-2.089-4.357-4.066 0-3.107 2.475-4.02 4.149-4.02 1.52 0 2.836.868 2.836.868l-.853 1.508s-.517-.8-2.029-.8c-1.509 0-2.305 1.29-2.305 2.513 0 1.371.927 2.536 2.328 2.536 1.1 0 2.029-.823 2.029-.823z" fill="#fff"/></g></svg><svg height="94" width="114" viewBox="-2 -2 99 78" y="648"><g fill-rule="evenodd" fill="none"><path fill="#F79F1A" d="M94.92 29.255c0 16.066-13.119 29.09-29.302 29.09s-29.302-13.024-29.302-29.09C36.316 13.19 49.435.166 65.618.166S94.92 13.19 94.92 29.255z"/><path fill="#EA001B" d="M58.772 29.255c0 16.066-13.119 29.09-29.302 29.09S.168 45.321.168 29.255C.168 13.19 13.287.166 29.47.166S58.772 13.19 58.772 29.255z"/><path fill="#FF5F01" d="M47.544 6.356c-6.837 5.326-11.225 13.601-11.225 22.897s4.388 17.577 11.225 22.902c6.837-5.325 11.225-13.606 11.225-22.902s-4.388-17.57-11.225-22.897z"/><path d="M6.686 72.735H5.023v-7.689h1.63v.937s1.432-1.145 2.282-1.13c1.654.027 2.641 1.42 2.641 1.42s.801-1.42 2.608-1.42c2.673 0 3.065 2.422 3.065 2.422v5.428h-1.597v-4.782s.005-1.453-1.728-1.453c-1.793 0-1.957 1.454-1.957 1.454v4.781h-1.662v-4.814s-.16-1.518-1.663-1.518c-1.952 0-1.989 1.55-1.989 1.55l.033 4.814zm50.566-7.884c-.851-.014-2.282 1.131-2.282 1.131v-.935h-1.632v7.687h1.664l-.032-4.813s.036-1.547 1.988-1.547c.363 0 .645.087.867.22v-.006l.542-1.497a3.01 3.01 0 00-1.115-.24zm23.422 0c-.85-.014-2.282 1.131-2.282 1.131v-.935H76.76v7.687h1.664l-.032-4.813s.037-1.547 1.989-1.547c.363 0 .644.087.867.22v-.006l.542-1.497a3.011 3.011 0 00-1.116-.24zm-58.048-.031c-2.489 0-3.806 2.216-3.812 4.067-.007 1.898 1.499 4.087 3.882 4.087 1.39 0 2.532-1.017 2.532-1.017l-.003.783h1.637v-7.696h-1.643v.97s-1.072-1.194-2.593-1.194zm.318 1.566c1.337 0 2.423 1.153 2.423 2.571s-1.086 2.564-2.423 2.564-2.416-1.146-2.416-2.564 1.079-2.57 2.416-2.57zm47.412-1.566c-2.488 0-3.805 2.216-3.812 4.067-.007 1.898 1.499 4.087 3.882 4.087 1.39 0 2.532-1.017 2.532-1.017l-.003.783h1.637v-7.696H72.95v.97s-1.073-1.194-2.594-1.194zm.319 1.566c1.337 0 2.422 1.153 2.422 2.571s-1.085 2.564-2.422 2.564-2.416-1.146-2.416-2.564 1.079-2.57 2.416-2.57zm15.396-1.566c-2.489 0-3.806 2.216-3.812 4.067-.007 1.898 1.499 4.087 3.882 4.087 1.39 0 2.532-1.017 2.532-1.017l-.003.783h1.637V62.006h-1.643v4.008s-1.072-1.194-2.593-1.194zm.318 1.566c1.337 0 2.423 1.153 2.423 2.571s-1.086 2.564-2.423 2.564-2.416-1.146-2.416-2.564 1.079-2.57 2.416-2.57zm-54.534 6.607c-1.695 0-3.26-1.033-3.26-1.033l.717-1.099s1.481.679 2.543.679c.69 0 1.845-.221 1.859-.905.014-.723-1.94-.937-1.94-.937s-2.918-.04-2.918-2.423c0-1.499 1.457-2.455 3.325-2.455 1.08 0 3.097.937 3.097.937l-.815 1.26s-1.558-.617-2.38-.646c-.694-.025-1.532.304-1.532.904 0 1.63 4.858-.127 4.858 3.166 0 2.161-1.979 2.552-3.554 2.552zm6.254-10.176v2.237h-1.447v1.617h1.447v3.865s-.128 2.615 2.709 2.615c.785 0 2.321-.575 2.321-.575l-.657-1.68s-.611.516-1.3.5c-1.312-.034-1.275-.866-1.275-.866v-3.86h2.703v-1.615h-2.703v-2.238h-1.798zm9.849 2.098c-2.669 0-4.002 2.177-3.991 4.067.012 1.944 1.214 4.131 4.15 4.131 1.257 0 3.022-1.093 3.022-1.093l-.759-1.307s-1.204.846-2.263.846c-2.119 0-2.256-2.052-2.256-2.052h5.673s.423-4.592-3.576-4.592zm-.243 1.51c.063-.004.131 0 .198 0 1.997 0 1.983 1.869 1.983 1.869h-4.035s-.096-1.76 1.854-1.87zm17.118 4.268l.761 1.508s-1.206.776-2.559.776c-2.802 0-4.357-2.089-4.357-4.066 0-3.107 2.475-4.02 4.149-4.02 1.52 0 2.836.868 2.836.868l-.853 1.508s-.517-.8-2.029-.8c-1.509 0-2.305 1.29-2.305 2.513 0 1.371.927 2.536 2.328 2.536 1.1 0 2.029-.823 2.029-.823z" fill="#000"/></g></svg><svg width="174" height="104" viewBox="-2 -2 77 44" y="742"><path d="M59.805 13.084h10.992l-.847 12.67h-8.587l.657-2.497h-3.83l-1.996 2.497H47.69l12.114-12.67zm3.664 3.233l-3.746 4.864h2.925l1.177-4.864h-.356zm-53.314 6.628c-.152.298-.19.37-.195.404-.024.142.049.216.187.283.134.063.619.122 1.032.122.414 0 .958-.059 1.157-.122.205-.067.353-.141.474-.283.029-.034.063-.106.215-.404l3.577-7.05c.152-.3.19-.372.196-.406.023-.141-.05-.215-.188-.282-.134-.064-.618-.122-1.032-.122-.414 0-.957.058-1.156.122-.206.067-.353.14-.474.282-.03.034-.064.106-.216.405l-3.577 7.05zm-6.222 2.787c-1.567-.092-3.03-.229-3.377-.984-.184-.399.113-1.023.498-1.784l3.592-7.089c.386-.76.723-1.386 1.31-1.785 1.113-.755 2.715-.892 4.375-.984 1.269-.07 3.795-.106 6.303-.106s5 .035 6.196.106c1.567.092 3.03.229 3.378.984.182.399-.114 1.024-.5 1.785l-3.592 7.089c-.385.76-.723 1.385-1.31 1.784-1.112.755-2.714.892-4.375.984-1.267.071-3.794.106-6.303.106-2.508 0-4.999-.035-6.195-.106zm35.015-5.366l-1.308 2.579c-.152.298-.187.37-.215.404-.121.142-.27.216-.474.283-.2.063-.743.122-1.157.122-.414 0-.898-.059-1.032-.122-.138-.067-.21-.141-.188-.283.006-.034.045-.106.196-.404l3.577-7.05c.152-.3.187-.372.216-.406.12-.141.268-.215.473-.282.2-.064.743-.122 1.157-.122.414 0 .898.058 1.032.122.138.067.211.14.188.282-.006.034-.045.106-.196.405l-.76 1.5h9.097l.77-1.519c.385-.76.682-1.386.498-1.785-.347-.755-1.81-.892-3.378-.984-1.196-.071-3.687-.106-6.195-.106-2.508 0-5.034.036-6.302.106-1.66.092-3.263.229-4.376.984-.586.399-.924 1.024-1.31 1.785l-3.592 7.089c-.385.76-.682 1.385-.5 1.784.349.755 1.812.892 3.378.984 1.197.071 3.688.106 6.197.106 2.508 0 5.034-.035 6.302-.106 1.66-.092 3.263-.229 4.375-.984.587-.399.925-1.023 1.31-1.784l1.316-2.598h-9.099" fill="#FFF" fill-rule="evenodd"/></svg><svg width="394" height="82" viewBox="-2 -2 444 82" y="846"><path d="M61.024 32.148c-.063 5.294 4.735 8.244 8.349 10.004 3.712 1.802 4.958 2.956 4.944 4.566-.028 2.468-2.962 3.556-5.708 3.598-4.792.074-7.575-1.292-9.792-2.322l-1.726 8.054c2.226 1.02 6.34 1.908 10.603 1.952 10.017 0 16.568-4.932 16.6-12.576.042-9.698-13.45-10.234-13.359-14.568.031-1.317 1.289-2.718 4.045-3.077 1.365-.178 5.133-.315 9.4 1.643l1.676-7.793C83.76 20.799 80.809 20 77.134 20c-9.423 0-16.057 4.996-16.11 12.148zm41.141-11.475a4.34 4.34 0 00-4.06 2.695L83.798 57.427H93.81l1.988-5.492h12.231l1.152 5.492H118l-7.698-36.754h-8.137zm1.397 9.93l2.889 13.8h-7.91l5.021-13.8zm-54.668-9.93l-7.888 36.754h9.535l7.885-36.754h-9.532zm-14.109 0l-9.923 25.015-4.014-21.27c-.47-2.374-2.331-3.745-4.398-3.745H.225L0 21.738c3.33.722 7.114 1.887 9.407 3.128 1.403.76 1.803 1.422 2.265 3.228l7.602 29.333h10.079L44.8 20.673H34.785z" fill="#FFF" fill-rule="evenodd"/></svg><svg width="394" height="82" viewBox="-2 -2 444 82" y="928"><path d="M61.024 32.148c-.063 5.294 4.735 8.244 8.349 10.004 3.712 1.802 4.958 2.956 4.944 4.566-.028 2.468-2.962 3.556-5.708 3.598-4.792.074-7.575-1.292-9.792-2.322l-1.726 8.054c2.226 1.02 6.34 1.908 10.603 1.952 10.017 0 16.568-4.932 16.6-12.576.042-9.698-13.45-10.234-13.359-14.568.031-1.317 1.289-2.718 4.045-3.077 1.365-.178 5.133-.315 9.4 1.643l1.676-7.793C83.76 20.799 80.809 20 77.134 20c-9.423 0-16.057 4.996-16.11 12.148zm41.141-11.475a4.34 4.34 0 00-4.06 2.695L83.798 57.427H93.81l1.988-5.492h12.231l1.152 5.492H118l-7.698-36.754h-8.137zm1.397 9.93l2.889 13.8h-7.91l5.021-13.8zm-54.668-9.93l-7.888 36.754h9.535l7.885-36.754h-9.532zm-14.109 0l-9.923 25.015-4.014-21.27c-.47-2.374-2.331-3.745-4.398-3.745H.225L0 21.738c3.33.722 7.114 1.887 9.407 3.128 1.403.76 1.803 1.422 2.265 3.228l7.602 29.333h10.079L44.8 20.673H34.785z" fill="#143281" fill-rule="evenodd"/></svg></svg>